<svg width="249" height="258" viewBox="0 0 249 258" fill="none" xmlns="http://www.w3.org/2000/svg">
<path d="M171.299 41.6837C171.34 41.6783 171.382 41.6755 171.424 41.6753C172.549 41.6704 173.653 41.9632 174.626 42.5249C175.599 43.0867 176.405 43.8969 176.963 44.8736L176.963 44.8737L223.013 125.455C223.571 126.432 223.862 127.541 223.856 128.67L222.856 128.665L223.856 128.67C223.851 129.798 223.55 130.907 222.985 131.885M171.299 41.6837L175.362 212.369M171.299 41.6837L78.6136 42.0864L78.6135 42.0864C77.488 42.0913 76.3825 42.3941 75.4079 42.9629C74.4335 43.5315 73.6238 44.3463 73.0595 45.3249L26.312 126.294C25.7465 127.272 25.4459 128.38 25.4406 129.509C25.4353 130.637 25.7259 131.746 26.2844 132.723L72.3335 213.305L73.2017 212.808L72.3335 213.305C72.8917 214.281 73.6976 215.092 74.6706 215.653C75.6435 216.215 76.7482 216.508 77.8731 216.503L170.674 216.108L170.674 216.108C171.8 216.103 172.905 215.8 173.88 215.231C174.855 214.662 175.664 213.847 176.229 212.869M171.299 41.6837L175.362 212.369M222.985 131.885L222.119 131.384L222.985 131.884L222.985 131.885ZM222.985 131.885L176.229 212.869M176.229 212.869L175.362 212.369M176.229 212.869L176.228 212.869L175.362 212.369" stroke="url(#paint0_angular_123_4042)" stroke-width="2" stroke-linecap="round" stroke-linejoin="round"/>
<path d="M149.183 175.843C149.497 176.024 149.884 176.021 150.196 175.836C150.507 175.65 150.693 175.31 150.683 174.948L148.166 89.6842C148.156 89.3376 147.967 89.021 147.667 88.8477C147.367 88.6743 146.998 88.6688 146.693 88.8333L71.5944 129.286C71.2752 129.458 71.0741 129.789 71.0687 130.152C71.0634 130.514 71.2547 130.851 71.5686 131.032L149.183 175.843Z" stroke="url(#paint1_angular_123_4042)" stroke-width="2" stroke-linecap="round" stroke-linejoin="round"/>
<path d="M147.167 89.7137L75.7013 43.2149L72.0685 130.166M147.167 89.7137L223.169 128.355L149.683 174.977M147.167 89.7137L174.385 42.5701M72.0685 130.166L25.801 129.645M72.0685 130.166L74.5845 215.43L149.683 174.977M149.683 174.977L173.268 214.785" stroke="url(#paint2_angular_123_4042)" stroke-width="2" stroke-linecap="round" stroke-linejoin="round"/>
<path d="M120.716 29.5997C120.748 29.5751 120.782 29.5524 120.818 29.5316C121.796 28.9664 122.905 28.6687 124.034 28.6687C125.163 28.6687 126.272 28.9664 127.249 29.5316L127.249 29.5317L208.031 76.2488C209.01 76.8144 209.822 77.628 210.386 78.6075C210.95 79.587 211.247 80.6979 211.246 81.8285M120.716 29.5997L210.246 81.8279M120.716 29.5997L43.8828 73.782L43.8807 73.7832C43.5856 73.9539 43.0924 74.3447 42.5808 74.7715C42.0399 75.2227 41.3972 75.7835 40.7678 76.3535C40.139 76.9229 39.5156 77.5083 39.0153 78.0084C38.7656 78.2579 38.5399 78.4928 38.3571 78.6978C38.1899 78.8852 38.0081 79.1026 37.8923 79.3038M120.716 29.5997L37.8923 79.3038M211.246 81.8285L210.246 81.8279M211.246 81.8285V81.8279H210.246M211.246 81.8285V175.252M210.246 81.8279V175.253M211.246 175.252L210.246 175.253M211.246 175.252V175.253H210.246M211.246 175.252C211.247 176.383 210.95 177.494 210.386 178.474C209.822 179.453 209.01 180.267 208.031 180.832L208.031 180.832L127.249 227.531C126.272 228.097 125.163 228.394 124.034 228.394C122.905 228.394 121.796 228.097 120.818 227.531L121.319 226.666L120.818 227.531L40.0361 180.814C39.058 180.249 38.246 179.435 37.6818 178.455L37.6818 178.455C37.1176 177.476 36.821 176.365 36.8217 175.235L36.8217 87.3002C36.8217 87.3 36.8217 87.2998 36.8217 87.2996C36.8214 86.763 36.942 85.0495 37.1168 83.3981C37.2051 82.5635 37.3098 81.7203 37.4246 81.0259C37.4818 80.6797 37.5437 80.3571 37.6104 80.0851C37.6696 79.8439 37.7555 79.5412 37.8923 79.3038M210.246 175.253L37.8923 79.3038" stroke="url(#paint3_angular_123_4042)" stroke-width="2" stroke-linecap="round" stroke-linejoin="round"/>
<path d="M170.461 156.449C170.824 156.449 171.158 156.253 171.334 155.936C171.511 155.619 171.502 155.232 171.312 154.923L127.01 83.1656C126.828 82.8705 126.506 82.6909 126.159 82.6909C125.812 82.6909 125.49 82.8705 125.308 83.1656L81.0066 154.923C80.8161 155.232 80.8076 155.619 80.9842 155.936C81.1608 156.253 81.4949 156.449 81.8575 156.449H170.461Z" stroke="url(#paint4_angular_123_4042)" stroke-width="2" stroke-linecap="round" stroke-linejoin="round"/>
<path d="M123.565 83.5938L38.2902 79.8029L77.9439 155.494M123.565 83.5938L210.246 79.1001L169.187 155.494M123.565 83.5938V29.6687M77.9439 155.494L36.8846 177.963M77.9439 155.494L123.565 227.394L169.187 155.494M169.187 155.494L210.246 177.963" stroke="url(#paint5_angular_123_4042)" stroke-width="2" stroke-linecap="round" stroke-linejoin="round"/>
<path d="M126.376 228.394C181.554 228.394 224.365 183.659 224.365 128.531C224.365 73.3788 179.655 28.6687 124.502 28.6687C69.3496 28.6687 24.6396 73.3788 24.6396 128.531C24.6396 156.061 34.0913 181.035 51.5687 199.133C69.0526 217.237 94.5054 228.394 126.376 228.394Z" stroke="url(#paint6_angular_123_4042)" stroke-width="2" stroke-linecap="round"/>
<defs>
<radialGradient id="paint0_angular_123_4042" cx="0" cy="0" r="1" gradientUnits="userSpaceOnUse" gradientTransform="translate(124.648 129.089) rotate(120) scale(98.9557 85.5595)">
<stop stop-color="#F572FF"/>
<stop offset="0.333333" stop-color="#FF9820"/>
<stop offset="0.666667" stop-color="#90FF09"/>
<stop offset="1" stop-color="#20FFF2"/>
</radialGradient>
<radialGradient id="paint1_angular_123_4042" cx="0" cy="0" r="1" gradientUnits="userSpaceOnUse" gradientTransform="translate(129.021 121.143) rotate(120) scale(36.2911 44.8107)">
<stop stop-color="#F572FF"/>
<stop offset="0.333333" stop-color="#FF9820"/>
<stop offset="0.666667" stop-color="#90FF09"/>
<stop offset="1" stop-color="#20FFF2"/>
</radialGradient>
<radialGradient id="paint2_angular_123_4042" cx="0" cy="0" r="1" gradientUnits="userSpaceOnUse" gradientTransform="translate(124.485 129) rotate(120) scale(99.8005 85.1403)">
<stop stop-color="#F572FF"/>
<stop offset="0.333333" stop-color="#FF9820"/>
<stop offset="0.666667" stop-color="#90FF09"/>
<stop offset="1" stop-color="#20FFF2"/>
</radialGradient>
<radialGradient id="paint3_angular_123_4042" cx="0" cy="0" r="1" gradientUnits="userSpaceOnUse" gradientTransform="translate(124.034 128.531) rotate(90) scale(98.8628 86.2121)">
<stop stop-color="#F572FF"/>
<stop offset="0.333333" stop-color="#FF9820"/>
<stop offset="0.666667" stop-color="#90FF09"/>
<stop offset="1" stop-color="#20FFF2"/>
</radialGradient>
<radialGradient id="paint4_angular_123_4042" cx="0" cy="0" r="1" gradientUnits="userSpaceOnUse" gradientTransform="translate(126.159 119.57) rotate(90) scale(35.8789 44.3018)">
<stop stop-color="#F572FF"/>
<stop offset="0.333333" stop-color="#FF9820"/>
<stop offset="0.666667" stop-color="#90FF09"/>
<stop offset="1" stop-color="#20FFF2"/>
</radialGradient>
<radialGradient id="paint5_angular_123_4042" cx="0" cy="0" r="1" gradientUnits="userSpaceOnUse" gradientTransform="translate(123.565 128.531) rotate(90) scale(98.8628 86.6806)">
<stop stop-color="#F572FF"/>
<stop offset="0.333333" stop-color="#FF9820"/>
<stop offset="0.666667" stop-color="#90FF09"/>
<stop offset="1" stop-color="#20FFF2"/>
</radialGradient>
<radialGradient id="paint6_angular_123_4042" cx="0" cy="0" r="1" gradientUnits="userSpaceOnUse" gradientTransform="translate(124.502 128.531) rotate(90) scale(98.8628)">
<stop stop-color="#F572FF"/>
<stop offset="0.333333" stop-color="#FF9820"/>
<stop offset="0.666667" stop-color="#90FF09"/>
<stop offset="1" stop-color="#20FFF2"/>
</radialGradient>
</defs>
</svg>
