<svg width="362" height="77" viewBox="0 0 362 77" fill="none" xmlns="http://www.w3.org/2000/svg">
<path d="M38.0061 13.089C38.2157 12.9665 38.4534 12.902 38.6953 12.902C38.9372 12.902 39.1749 12.9665 39.3845 13.089L59.8894 25.075C60.0991 25.1975 60.2732 25.3738 60.3942 25.5861C60.5151 25.7984 60.5787 26.0392 60.5786 26.2843V50.254C60.5787 50.4991 60.5151 50.7399 60.3942 50.9522C60.2732 51.1645 60.0991 51.3408 59.8894 51.4633L39.3845 63.4447C39.1749 63.5672 38.9372 63.6316 38.6953 63.6316C38.4534 63.6316 38.2157 63.5672 38.0061 63.4447L17.5012 51.4587C17.2915 51.3361 17.1174 51.1598 16.9965 50.9476C16.8755 50.7353 16.8119 50.4945 16.812 50.2494V26.2843C16.8119 26.0392 16.8755 25.7984 16.9965 25.5861C17.1174 25.3738 17.2915 25.1975 17.5012 25.075L38.0061 13.0913V13.089Z" stroke="white" stroke-width="0.5" stroke-linecap="round" stroke-linejoin="round"/>
<path d="M50.1816 45.2447H27.2095L38.6956 26.6401L50.1816 45.2447Z" stroke="white" stroke-width="0.5" stroke-linecap="round" stroke-linejoin="round"/>
<path d="M38.6956 26.6401L16.8721 25.4773L27.2095 45.2447M38.6956 26.6401L60.5192 25.4773L50.1817 45.2447M38.6956 26.6401V12.6866M27.2095 45.2447L16.8721 51.0587M27.2095 45.2447L38.6956 63.8494L50.1817 45.2447M50.1817 45.2447L60.5192 51.0587" stroke="white" stroke-width="0.5" stroke-linejoin="round"/>
<g clip-path="url(#clip0_250_4387)">
<path d="M44.7944 50.3078L24.6714 38.6898L44.1421 28.2017L44.7944 50.3078Z" stroke="white" stroke-width="0.5" stroke-linecap="round" stroke-linejoin="round"/>
<path d="M44.142 28.2017L25.6132 16.146L24.6713 38.6898M44.142 28.2017L63.847 38.2202L44.7944 50.3078M44.142 28.2017L51.1989 15.9788M24.6713 38.6898L12.6756 38.5546M24.6713 38.6898L25.3237 60.796L44.7944 50.3078M44.7944 50.3078L50.9094 60.6288" stroke="white" stroke-width="0.5" stroke-linejoin="round"/>
</g>
<circle cx="38.4568" cy="38.4571" r="25.9553" stroke="white" stroke-width="0.5"/>
<path d="M75.897 59V17.7H94.659C99.143 17.7 103.096 18.5653 106.518 20.296C109.94 21.9873 112.615 24.367 114.542 27.435C116.469 30.503 117.433 34.1413 117.433 38.35C117.433 42.5193 116.469 46.1577 114.542 49.265C112.615 52.333 109.94 54.7323 106.518 56.463C103.096 58.1543 99.143 59 94.659 59H75.897ZM85.455 51.153H94.187C96.9403 51.153 99.32 50.6417 101.326 49.619C103.371 48.557 104.945 47.0623 106.046 45.135C107.187 43.2077 107.757 40.946 107.757 38.35C107.757 35.7147 107.187 33.453 106.046 31.565C104.945 29.6377 103.371 28.1627 101.326 27.14C99.32 26.078 96.9403 25.547 94.187 25.547H85.455V51.153ZM145.211 59.708C141.907 59.708 138.741 59.2753 135.712 58.41C132.683 57.5053 130.245 56.345 128.396 54.929L131.641 47.731C133.411 48.9897 135.496 50.032 137.895 50.858C140.334 51.6447 142.792 52.038 145.27 52.038C147.158 52.038 148.672 51.861 149.813 51.507C150.993 51.1137 151.858 50.5827 152.409 49.914C152.96 49.2453 153.235 48.4783 153.235 47.613C153.235 46.5117 152.802 45.6463 151.937 45.017C151.072 44.3483 149.931 43.8173 148.515 43.424C147.099 42.9913 145.526 42.598 143.795 42.244C142.104 41.8507 140.393 41.3787 138.662 40.828C136.971 40.2773 135.417 39.5693 134.001 38.704C132.585 37.8387 131.425 36.698 130.52 35.282C129.655 33.866 129.222 32.0567 129.222 29.854C129.222 27.494 129.851 25.3503 131.11 23.423C132.408 21.4563 134.335 19.9027 136.892 18.762C139.488 17.582 142.733 16.992 146.627 16.992C149.223 16.992 151.78 17.3067 154.297 17.936C156.814 18.526 159.037 19.4307 160.964 20.65L158.014 27.907C156.087 26.8057 154.159 25.9993 152.232 25.488C150.305 24.9373 148.417 24.662 146.568 24.662C144.719 24.662 143.205 24.8783 142.025 25.311C140.845 25.7437 139.999 26.314 139.488 27.022C138.977 27.6907 138.721 28.4773 138.721 29.382C138.721 30.444 139.154 31.3093 140.019 31.978C140.884 32.6073 142.025 33.1187 143.441 33.512C144.857 33.9053 146.411 34.2987 148.102 34.692C149.833 35.0853 151.544 35.5377 153.235 36.049C154.966 36.5603 156.539 37.2487 157.955 38.114C159.371 38.9793 160.512 40.12 161.377 41.536C162.282 42.952 162.734 44.7417 162.734 46.905C162.734 49.2257 162.085 51.3497 160.787 53.277C159.489 55.2043 157.542 56.758 154.946 57.938C152.389 59.118 149.144 59.708 145.211 59.708ZM196.03 59.708C192.844 59.708 189.874 59.1967 187.121 58.174C184.407 57.112 182.047 55.6173 180.041 53.69C178.035 51.7627 176.462 49.501 175.321 46.905C174.22 44.309 173.669 41.4573 173.669 38.35C173.669 35.2427 174.22 32.391 175.321 29.795C176.462 27.199 178.035 24.9373 180.041 23.01C182.086 21.0827 184.466 19.6077 187.18 18.585C189.894 17.523 192.864 16.992 196.089 16.992C199.668 16.992 202.894 17.6213 205.765 18.88C208.676 20.0993 211.114 21.9087 213.081 24.308L206.945 29.972C205.529 28.3593 203.956 27.1597 202.225 26.373C200.494 25.547 198.606 25.134 196.561 25.134C194.634 25.134 192.864 25.4487 191.251 26.078C189.638 26.7073 188.242 27.612 187.062 28.792C185.882 29.972 184.958 31.3683 184.289 32.981C183.66 34.5937 183.345 36.3833 183.345 38.35C183.345 40.3167 183.66 42.1063 184.289 43.719C184.958 45.3317 185.882 46.728 187.062 47.908C188.242 49.088 189.638 49.9927 191.251 50.622C192.864 51.2513 194.634 51.566 196.561 51.566C198.606 51.566 200.494 51.1727 202.225 50.386C203.956 49.56 205.529 48.321 206.945 46.669L213.081 52.333C211.114 54.7323 208.676 56.5613 205.765 57.82C202.894 59.0787 199.649 59.708 196.03 59.708ZM245.731 59.708C242.467 59.708 239.438 59.177 236.645 58.115C233.892 57.053 231.493 55.5583 229.447 53.631C227.441 51.7037 225.868 49.442 224.727 46.846C223.626 44.25 223.075 41.418 223.075 38.35C223.075 35.282 223.626 32.45 224.727 29.854C225.868 27.258 227.461 24.9963 229.506 23.069C231.552 21.1417 233.951 19.647 236.704 18.585C239.458 17.523 242.447 16.992 245.672 16.992C248.937 16.992 251.926 17.523 254.64 18.585C257.394 19.647 259.773 21.1417 261.779 23.069C263.825 24.9963 265.418 27.258 266.558 29.854C267.699 32.4107 268.269 35.2427 268.269 38.35C268.269 41.418 267.699 44.2697 266.558 46.905C265.418 49.501 263.825 51.7627 261.779 53.69C259.773 55.578 257.394 57.053 254.64 58.115C251.926 59.177 248.957 59.708 245.731 59.708ZM245.672 51.566C247.521 51.566 249.212 51.2513 250.746 50.622C252.32 49.9927 253.696 49.088 254.876 47.908C256.056 46.728 256.961 45.3317 257.59 43.719C258.259 42.1063 258.593 40.3167 258.593 38.35C258.593 36.3833 258.259 34.5937 257.59 32.981C256.961 31.3683 256.056 29.972 254.876 28.792C253.736 27.612 252.379 26.7073 250.805 26.078C249.232 25.4487 247.521 25.134 245.672 25.134C243.824 25.134 242.113 25.4487 240.539 26.078C239.005 26.7073 237.648 27.612 236.468 28.792C235.288 29.972 234.364 31.3683 233.695 32.981C233.066 34.5937 232.751 36.3833 232.751 38.35C232.751 40.2773 233.066 42.067 233.695 43.719C234.364 45.3317 235.269 46.728 236.409 47.908C237.589 49.088 238.966 49.9927 240.539 50.622C242.113 51.2513 243.824 51.566 245.672 51.566Z" fill="white"/>
<defs>
<clipPath id="clip0_250_4387">
<rect width="55.7666" height="56.455" fill="white" transform="translate(28.2275) rotate(30)"/>
</clipPath>
</defs>
</svg>
